<?xml version="1.0" encoding="iso-8859-1"?>
<!-- Uploaded to: SVG Repo, www.svgrepo.com, Generator: SVG Repo Mixer Tools -->
<svg fill="#000000" height="800px" width="800px" version="1.1" id="Layer_1" xmlns="http://www.w3.org/2000/svg" xmlns:xlink="http://www.w3.org/1999/xlink" 
	 viewBox="0 0 512 512" xml:space="preserve">
<g>
	<g>
		<path d="M511.403,243.264l-21.333-88.277c-1.472-6.101-5.568-11.264-11.2-14.08l-38.165-19.072l-60.971-81.301
			c-8.043-10.752-26.091-10.752-34.133,0l-60.309,80.405l-55.531,21.227l-19.008-35.008c-3.797-6.997-10.581-11.307-19.115-11.157
			c-7.957,0.128-15.168,4.672-18.731,11.797l-22.08,44.181L104.939,44.928c-3.2-7.467-10.368-12.48-18.475-12.907
			c-8.235-0.363-15.765,3.797-19.733,10.88l-64,114.005C0.939,160.107,0,163.691,0,167.36v291.307c0,0.149,0.064,0.256,0.064,0.405
			c0.043,2.133,0.405,4.267,1.088,6.315c0.171,0.512,0.448,0.96,0.661,1.472c0.427,1.024,0.768,2.069,1.365,3.029
			c0.277,0.427,0.661,0.747,0.939,1.152c0.427,0.576,0.853,1.109,1.344,1.643c1.024,1.152,2.155,2.176,3.392,3.072
			c0.491,0.363,0.939,0.768,1.451,1.088c1.856,1.109,3.819,1.984,5.931,2.496c0.064,0.021,0.107,0.064,0.192,0.085
			c1.643,0.384,3.285,0.576,4.907,0.576h356.032h113.301c11.776,0,21.333-9.557,21.333-21.333V248.278
			C512,246.592,511.808,244.886,511.403,243.264z M55.851,437.334l112.555-225.131c0,0,0,0,0.021-0.021l24.341-48.704
			l148.736,273.856H55.851z"/>
	</g>
</g>
</svg>